<?xml version="1.0" encoding="UTF-8"?>
<svg id="Layer_2" data-name="Layer 2" xmlns="http://www.w3.org/2000/svg" viewBox="0 0 119.05 131.39" fill="#f7fafc">
  <g id="Layer_1-2" data-name="Layer 1">
    <g>
      <path d="m85.76,87.1c-1.14-2.84-2.25-5.58-3.48-8.63-2.92,4.08-5.7,7.95-8.48,11.83-2.8,3.91-5.6,7.83-8.16,11.41.61,2.03,1.48,3.77,1.61,5.56.29,4-2.59,7.17-6.76,7.93-3.3.59-7.02-1.67-8.21-5.11-.31-.91-.71-1.28-1.68-1.22-1.36.08-2.73.02-4.21.02-1.09,8.27-5.11,14.62-12.54,18.53-5.4,2.84-11.14,3.44-17.03,1.75-11.56-3.3-19.26-15.01-16.11-28.34,2.62-11.04,16.1-21.78,32.01-15.4,1.88-3.52,3.79-7.04,5.63-10.59.16-.31.03-.91-.17-1.26-1.32-2.39-2.67-4.78-4.09-7.11-.23-.38-.84-.71-1.31-.74-1.6-.13-3.21-.12-4.81-.15-1.11-.02-1.88-.43-1.82-1.64.05-1.09.78-1.59,1.81-1.57,5.57.08,11.14.17,16.71.28,1.08.02,1.88.56,1.83,1.72-.06,1.15-.92,1.56-1.99,1.57-2.25,0-4.51,0-6.94,0,1.24,2.18,2.45,4.34,3.73,6.46.14.23.65.34.99.35,12.42.23,24.83.43,37.25.64.14,0,.28-.04.6-.1-.18-.5-.32-.97-.5-1.43-1.13-2.85-2.29-5.68-3.4-8.54-.63-1.63.04-2.67,1.76-2.64,5.38.1,10.76.18,16.14.43,3.1.15,5.35,1.85,6.49,4.72,1.19,3,.55,5.76-1.65,8.11-1.46,1.56-3.33,2.25-5.47,2.24-.95,0-1.52-.47-1.59-1.43-.07-.95.44-1.51,1.34-1.71.5-.12,1.03-.15,1.53-.28,1.91-.51,3.21-2.34,3.13-4.36-.08-1.98-1.6-4.01-3.48-4.07-4.75-.14-9.5-.04-14.32-.04.77,1.92,1.59,3.97,2.41,6.01,1.94,4.86,3.9,9.71,5.81,14.58.32.82.65,1.01,1.56.78,15.77-4.15,30.63,8.63,29.04,24.93-1.23,12.65-12.84,21.94-25.38,20.69-9.75-.98-18.58-8.49-20.52-18.98-1.85-9.99,3-19.9,12.14-24.82.16-.09.31-.2.59-.38Zm3.14,7.87c-7.19,3.52-9.98,12.44-6.35,19.9,3.49,7.17,12.51,10.32,19.66,6.87,7.55-3.64,10.74-12.55,7.22-20.01-3.32-7.02-11.5-10.11-17.47-7.91.16.43.32.86.49,1.29,1.59,3.98,3.18,7.96,4.78,11.93.41,1.02.48,2.03-.7,2.51-1.15.46-1.88-.2-2.3-1.25-.12-.31-.23-.62-.36-.92-1.65-4.1-3.29-8.2-4.98-12.41Zm-60.2-1.94c-5.19-2.64-12.06-1.09-16.59,3.67-4.25,4.46-5.09,11.83-1.98,17.38,3.25,5.81,9.87,8.77,16.38,7.33,6.02-1.33,11.01-6.81,11.42-12.64-.46-.03-.92-.07-1.39-.08-4.15-.08-8.3-.16-12.46-.24-2.44-.05-3.03-1.06-1.87-3.23,2.15-4.04,4.3-8.07,6.49-12.19Zm50.88-16.43c-12.19-.21-24.08-.42-36.24-.63,4.7,8.18,9.26,16.12,13.59,23.66,2.21.13,4,.24,5.99.35,5.39-7.57,10.93-15.35,16.66-23.39Zm10.5,12.5c.2.5.41,1,.6,1.48,11.88-2.75,20.3,4.44,22.66,12.36,2.62,8.8-1.68,18.13-10.22,21.93-8.31,3.7-18.13.49-22.86-7.49-2.39-4.03-3.09-8.38-2.17-12.95,1.14-5.67,4.57-9.71,9.54-12.58-.24-.57-.44-1.06-.65-1.55-9.37,4.21-13.67,16.26-9.36,25.88,4.53,10.13,16.25,14.74,26.2,10.31,10.17-4.53,14.85-16.33,10.43-26.3-4.9-11.07-16.86-13.91-24.18-11.09Zm-38.28,16.48c.6-1.04,1.07-2.15,1.81-3.04.6-.72.59-1.17.15-1.93-4.17-7.18-8.29-14.38-12.43-21.58-.23-.39-.47-.78-.79-1.32-1.73,3.24-3.35,6.3-4.99,9.38,6.65,4.47,10.19,10.63,10.88,18.5h5.37Zm-20.8-17.09c-7.7-3.65-17.55-1.25-23.21,5.62-5.89,7.14-6.13,17.07-.6,24.64,5.29,7.24,15.09,10.01,23.41,6.61,6.93-2.83,12.97-10.99,12.22-16.51h-1.49c-.13.68-.24,1.28-.37,1.88-2.33,10.71-13.71,16.97-23.98,13.2-9.25-3.4-14.21-13.65-11.08-22.92,3.2-9.5,13.38-14.59,23.04-11.46,1.18.38,1.78.23,2.05-1.06Zm-5.12,16.74h12.2c-.6-4.59-2.71-8.08-6.38-10.78-.25.39-.47.69-.64,1.01-1.69,3.18-3.37,6.36-5.18,9.77Zm33.58,6.77c2.52.03,4.67-2.05,4.67-4.49,0-2.56-2.13-4.65-4.7-4.63-2.36.02-4.35,2.05-4.39,4.46-.04,2.62,1.87,4.64,4.42,4.66Zm-26.26-20.49c4.46,3.15,7.17,7.32,7.95,12.62.22,1.46.77,1.6,1.97,1.16-.67-6.51-3.6-11.61-9.09-15.38-.32.61-.57,1.09-.84,1.6Z"/>
      <path d="m61.31.82c6.94,0,13.89.23,20.81-.06,7.13-.3,13.99,5.41,12.63,14.37-.86,5.69-1.48,11.41-2.19,17.12-.71,5.63-4.61,9.01-10.31,8.92-3.3-.05-6.61-.06-9.91-.18-.97-.03-1.53.3-2.09,1.06-2.55,3.51-5.16,6.98-7.75,10.46-1.54,2.06-2.38,2.05-3.82-.04-2.49-3.61-5-7.21-7.43-10.86-.57-.86-1.19-1.13-2.19-1.14-3.63-.02-7.28,0-10.9-.24-4.75-.31-8.36-3.94-8.8-8.64-.59-6.34-1.15-12.69-1.66-19.04C27.15,5.82,32.59-.04,39.51,0c7.27.04,14.53.3,21.8.46,0,.12,0,.24,0,.37Zm-.7,48.8c2.63-3.54,5.23-6.94,7.72-10.43.81-1.14,1.73-1.54,3.09-1.49,3.58.13,7.17.18,10.76.23,4.28.05,6.75-2.23,7.24-6.48.65-5.67,1.33-11.33,2.11-16.98.83-5.96-2.85-10.38-8.9-10.49-3.73-.07-7.45-.12-11.18-.18-10.52-.18-21.04-.32-31.56-.57-5.71-.13-9.24,4.66-8.93,8.54.53,6.58,1.04,13.16,1.72,19.73.35,3.41,2.82,5.47,6.23,5.58,3.73.12,7.45.26,11.18.24,1.56,0,2.51.54,3.35,1.82,2.3,3.5,4.73,6.92,7.18,10.48Z"/>
      <path d="m64.95,20.91c0,1.83,0,3.67,0,5.5,0,1.13-.42,1.96-1.65,2.06-1.03.08-1.64-.76-1.62-2.18.07-3.86.17-7.73.23-11.59.01-.97.37-1.84,1.31-1.86.63-.02,1.51.53,1.86,1.09,1.39,2.18,2.61,4.46,4.21,6.7,0-.51,0-1.02,0-1.54.02-1.41.04-2.83.07-4.24.02-1.06.41-1.92,1.59-1.94,1.24-.02,1.71.84,1.68,1.98-.07,3.96-.11,7.92-.3,11.87-.03.62-.69,1.51-1.26,1.71-.45.16-1.45-.4-1.78-.91-1.41-2.2-2.67-4.5-3.98-6.77-.12.04-.25.07-.37.11Z"/>
      <path d="m44.58,21.08c.82,1.47,1.61,2.92,2.43,4.34.55.96.57,1.87-.42,2.46-1.06.63-1.86.17-2.43-.87-.83-1.53-1.67-3.07-2.6-4.54-.29-.46-.89-.74-1.34-1.1-.15.08-.3.17-.46.25,0,1.49.12,2.99-.05,4.46-.08.67-.59,1.53-1.16,1.84-1,.53-2.05-.31-2.04-1.59.03-4.11.12-8.21.22-12.32.03-1.06.66-1.68,1.71-1.69,1.46-.01,2.94-.04,4.38.15,1.87.24,3.21,1.29,3.8,3.15.6,1.91.09,3.53-1.35,4.88-.2.19-.43.36-.7.58Zm-4.63-2.41c1.26-.34,2.39-.58,3.44-.98.15-.06.19-1.07-.05-1.39-.89-1.17-2.16-.66-3.39-.64v3.01Z"/>
      <path d="m52.58,22.11v3.08c1.71,0,3.39-.05,5.07.02,1.38.06,2.2,1.3,1.52,2.3-.29.42-.97.78-1.49.8-2.21.07-4.43.02-6.65-.01-1.29-.02-1.87-.73-1.85-1.99.08-4.01.16-8.01.25-12.02.03-1.22.73-1.81,1.9-1.79,2.17.03,4.34.12,6.5.17,1.06.03,1.77.54,1.76,1.61-.02,1.15-.82,1.6-1.92,1.6-1.64-.01-3.28,0-5.01,0v3.02c1.45,0,2.93-.01,4.41,0,1.71.02,2.43.54,2.41,1.68-.02,1.09-.72,1.53-2.37,1.53-1.46,0-2.92,0-4.55,0Z"/>
      <path d="m78.21,16.31c-.86-.05-1.69-.09-2.53-.16-.99-.08-1.6-.61-1.57-1.63.04-1,.66-1.56,1.65-1.55,2.73.03,5.46.09,8.19.18,1.07.03,1.86.51,1.78,1.72-.08,1.21-.93,1.51-1.99,1.49-.69-.02-1.39,0-2.34,0,0,2.72,0,5.3,0,7.88,0,.89-.03,1.79-.07,2.68-.04,1.06-.44,1.92-1.64,1.86-1.12-.06-1.64-.8-1.61-1.92.05-1.98.1-3.96.12-5.93.02-1.5,0-2.99,0-4.61Z"/>
    </g>
  </g>
</svg>