<?xml version="1.0" encoding="UTF-8"?>
<svg id="Layer_2" data-name="Layer 2" xmlns="http://www.w3.org/2000/svg" viewBox="0 0 54.25 54.34" fill="#f7fafc">
  <g id="Layer_1-2" data-name="Layer 1">
    <path d="m54.25,27.29c.19,14.44-11.95,26.78-26.5,27.05C12.63,54.62.82,42.55.04,28.61-.83,13.01,11.92.1,26.93,0c14.95-.1,27.44,12.13,27.32,27.29Zm-27.25,24.02c12.81.25,24.05-10.54,24.3-23.32.26-13.52-10.26-24.73-23.42-25.01C14.59,2.72,3.54,12.94,3.03,25.99c-.55,13.98,10.1,25.05,23.97,25.32Z"/>
    <path d="m30.5,42.41c0-2.88-.05-5.56.02-8.23.03-1.1-.35-1.5-1.41-1.39-.56.06-1.12,0-1.69,0q-3.56,0-3.56,3.63v5.98c-2.49,0-4.85.02-7.22-.04-.25,0-.68-.51-.68-.79-.04-4.8-.04-9.61,0-14.41,0-.36.31-.8.59-1.07,3.26-3.16,6.56-6.28,9.81-9.45.66-.65,1.09-.57,1.71.04,3.27,3.22,6.58,6.39,9.84,9.62.32.32.55.89.55,1.35.04,4.54.02,9.09.02,13.63,0,.58.03,1.15-.83,1.14-2.33-.02-4.66,0-7.15,0Z"/>
    <path d="m27.18,13.66c-2.3,2.19-4.56,4.33-6.81,6.47-2.38,2.27-4.77,4.53-7.14,6.81-.54.52-1.14.99-1.77.3-.64-.69-.15-1.35.45-1.74,2.72-1.75,3.47-4.26,3.04-7.33-.13-.93-.02-1.9-.02-2.96h4.8v2.71c.51-.41.8-.61,1.05-.84,1.79-1.69,3.6-3.38,5.36-5.1.74-.73,1.36-.73,2.11-.02,4.76,4.54,9.55,9.06,14.32,13.59.48.46,1.01.97.39,1.65-.66.71-1.22.26-1.77-.25-3.91-3.74-7.83-7.47-11.75-11.2-.72-.68-1.44-1.36-2.24-2.1Z"/>
  </g>
</svg>