<?xml version="1.0" encoding="UTF-8"?>
<svg id="Layer_2" data-name="Layer 2" xmlns="http://www.w3.org/2000/svg" viewBox="0 0 62.8 54.5" fill="#f7fafc">
  <g id="Layer_1-2" data-name="Layer 1">
    <g>
      <path d="m31.34,0c.48.12.92.17,1.3.33,9.48,4.07,18.96,8.15,28.44,12.24.81.35,1.56.74,1.67,1.77.13,1.16-.29,1.85-1.56,2.4-2.87,1.25-5.76,2.48-8.63,3.71-6.63,2.86-13.26,5.71-19.88,8.58-.85.37-1.62.39-2.48.02-9.44-4.08-18.9-8.14-28.34-12.23-.59-.26-1.22-.68-1.55-1.2-.71-1.11-.14-2.35,1.24-2.95,3.61-1.57,7.22-3.11,10.83-4.66C18.24,5.48,24.11,2.95,29.98.43c.44-.19.92-.29,1.36-.43Z"/>
      <path d="m62.8,26.83c-.05,1.53-.65,2.12-1.58,2.52-4.86,2.07-9.72,4.15-14.57,6.24-4.66,2-9.32,3.99-13.97,6.01-.85.37-1.62.38-2.48.02-9.48-4.08-18.97-8.14-28.45-12.21C.48,28.86.02,28.21.06,27.15c.03-.86.43-1.46,1.21-1.8,1.49-.65,2.97-1.33,4.49-1.92.33-.13.83.01,1.19.17,7.06,3.02,14.13,6.02,21.16,9.1,2.22.97,4.29,1.03,6.56.03,7.02-3.11,14.1-6.08,21.15-9.13.62-.27,1.13-.28,1.73,0,1.25.59,2.54,1.1,3.8,1.65.89.39,1.48.99,1.43,1.58Z"/>
      <path d="m62.78,39.85c-.03,1.06-.62,1.65-1.56,2.05-4.69,2-9.37,4.03-14.06,6.04-4.85,2.09-9.71,4.17-14.55,6.28-.82.36-1.57.35-2.39,0-9.5-4.11-19.01-8.2-28.53-12.28-.96-.41-1.62-1-1.64-2.1-.03-1.14.68-1.69,1.64-2.08,1.25-.51,2.47-1.11,3.74-1.58.43-.16,1.04-.17,1.45,0,7.1,3.01,14.19,6.04,21.25,9.14,2.24.98,4.33.97,6.57,0,7.04-3.08,14.11-6.08,21.16-9.12.58-.25,1.07-.28,1.65,0,1.28.6,2.59,1.12,3.89,1.69.86.37,1.42.96,1.38,1.98Z"/>
    </g>
  </g>
</svg>