<?xml version="1.0" encoding="UTF-8"?>
<svg id="Layer_2" data-name="Layer 2" xmlns="http://www.w3.org/2000/svg" viewBox="0 0 59.86 50.02" fill="#f7fafc">
  <defs>
    <style>
      .cls-1 {
        fill: #fff;
      }
    </style>
  </defs>
  <g id="Layer_1-2" data-name="Layer 1">
    <g>
      <path d="m59.84,20.77c.16,2.67-.8,5.08-2.18,7.21-2.84,4.39-5.91,8.63-8.94,12.9-.69.97-1.76,1.05-2.39.2-3.72-4.98-7.75-9.74-10.32-15.51-3.59-8.06,2.62-17.47,11.85-17.2,6.68.19,11.96,5.67,11.97,12.4Zm-12.41,5.75c3.17,0,5.63-2.43,5.64-5.61.01-3.16-2.46-5.68-5.6-5.7-3.09-.02-5.69,2.58-5.68,5.66.01,3.16,2.48,5.64,5.64,5.65Z"/>
      <path d="m25.09,0c4.71-.13,9.04,1.16,13.06,3.55.93.55,1.53,1.25.89,2.29-.63,1.03-1.54.66-2.35.16-5.44-3.33-11.26-4.18-17.4-2.56C10.29,5.84,3.36,14.29,2.89,23.33c-.52,10.04,4.96,18.91,14.04,22.39,7.79,2.98,15.08,1.84,21.79-3.1.15-.11.3-.23.44-.35.78-.62,1.62-.98,2.32,0,.62.86.19,1.58-.58,2.17-4.57,3.55-9.62,5.62-15.51,5.59-10.6-.05-18.33-4.88-22.89-14.26C-4.84,20.62,4.66,2.81,21.42.2c1.21-.19,2.45-.13,3.67-.19Z"/>
      <path d="m9.28,24.93c0-11.36,11.58-18.93,22.08-14.47.94.4,1.65.95,1.18,2.01-.45,1.02-1.35.95-2.29.58-5.62-2.17-11.02-.97-14.85,3.27-4.45,4.92-4.43,12.55.04,17.42,4.62,5.03,12.21,5.73,17.55,1.6.3-.23.59-.48.88-.71.69-.55,1.39-.62,2.01.08.67.76.49,1.55-.23,2.1-1.2.91-2.4,1.88-3.74,2.52-10.57,4.97-22.63-2.73-22.63-14.39Z"/>
      <path d="m16.97,25.45c.12-3.69,1.54-6.12,4.34-7.63,2.65-1.43,5.34-1.34,7.94.23.82.5,1.56,1.13.99,2.15-.59,1.06-1.46.86-2.42.32-2.66-1.49-5.67-.77-7.19,1.64-1.48,2.34-.9,5.42,1.32,7.08,2.38,1.77,5.53,1.3,7.44-1.08.33-.41.81-.87,1.28-.95.39-.07,1.17.31,1.24.62.14.56.07,1.35-.25,1.81-1.78,2.49-4.23,3.7-7.31,3.4-3.19-.31-5.45-2-6.71-4.92-.42-.97-.53-2.08-.67-2.67Z"/>
      <path class="cls-1" d="m50.26,20.9c.01-1.62-1.24-2.87-2.85-2.84-1.53.03-2.8,1.29-2.81,2.78-.01,1.63,1.19,2.85,2.82,2.86,1.66,0,2.83-1.14,2.84-2.8Z"/>
      <path d="m50.26,20.9c-.01,1.66-1.18,2.81-2.84,2.8-1.62,0-2.83-1.23-2.82-2.86.01-1.49,1.28-2.75,2.81-2.78,1.61-.03,2.86,1.22,2.85,2.84Z"/>
    </g>
  </g>
</svg>