<?xml version="1.0" encoding="utf-8"?>
<!-- Generator: Adobe Illustrator 27.2.0, SVG Export Plug-In . SVG Version: 6.00 Build 0)  -->
<svg version="1.1" id="Layer_1" xmlns="http://www.w3.org/2000/svg" xmlns:xlink="http://www.w3.org/1999/xlink" x="0px" y="0px"
	 viewBox="0 0 841.89 595.28" style="enable-background:new 0 0 841.89 595.28;" xml:space="preserve">
<style type="text/css">
	.st0{fill:#FFFFFF;}
</style>
<path class="st0" d="M355.85,155.34c-15.03-0.39-20.2-0.69-22.4-1.32c-5.19-1.47-12.77-1.83-46.74-2.19
	c-50.14-0.54-54.5-0.67-59.55-1.79c-6.5-1.44-14.21-5.22-20.28-9.91c-2.66-2.06-8.04-7.52-8.74-8.87c-0.25-0.47-0.79-1.29-1.21-1.82
	c-0.78-0.98-3.74-6.76-4.99-9.73c-1.29-3.09-2.62-8.72-2.96-12.58c-0.17-1.98-0.25-3.67-0.18-3.74c0.24-0.25,116.31,0.38,124.9,0.67
	c8.34,0.28,15.04,0.76,21.13,1.51c1.79,0.22,4.16,0.4,5.24,0.4c1.93,0,1.99-0.02,2.4-0.83c0.43-0.84,1.01-0.86,0.93-0.03
	c-0.17,1.72,0.65,2.26,4.8,3.19c5.47,1.22,11.92,3.94,19.29,8.13c1.46,0.83,2.91,1.59,3.22,1.69c0.67,0.22,7.3,5.13,11.03,8.19
	c4.64,3.8,9.16,8.81,15.38,17.05c3.24,4.29,6.95,11.2,6.34,11.81C403.07,155.57,369.84,155.69,355.85,155.34z M478.73,162.06
	c0-0.23,0.12-0.42,0.28-0.42c0.15,0,0.27,0.11,0.27,0.26c0,0.14-0.12,0.33-0.27,0.42C478.86,162.41,478.73,162.3,478.73,162.06z
	 M426.63,363.12c-5.08-0.23-9.07-0.72-13.11-1.59c-6.5-1.41-14.54-3.53-18.21-4.8c-1.75-0.61-3.68-1.23-4.28-1.39
	c-4.33-1.12-19.76-7.91-30.82-13.57c-6.83-3.49-15.21-8.67-19.1-11.8c-6.44-5.19-14.75-12.44-20.32-17.71
	c-7.45-7.05-32.29-31.91-40.37-40.39c-3.22-3.37-10.41-10.87-15.98-16.65c-12.14-12.59-12.81-13.33-12.4-13.75
	c0.43-0.43,15.15-0.4,33.97,0.07c15.78,0.39,39.81,0.25,42.9-0.25c3.96-0.64,10.97-3.11,14.39-5.07
	c7.43-4.27,14.19-11.57,18.26-19.71l1.28-2.56l1.55,0.17c5.21,0.56,29.44,1.25,44.61,1.26l3.79,0l-0.18,1.16
	c-0.25,1.61-4.57,14.44-5.63,16.74c-0.48,1.04-1.28,2.86-1.79,4.04c-0.5,1.19-1.23,2.61-1.6,3.16c-0.38,0.55-0.85,1.61-1.05,2.37
	c-0.36,1.41-2.77,5.15-5.51,8.57c-2.29,2.86-12.76,13.66-17.71,18.27c-5.05,4.7-9.42,7.87-14.13,10.26
	c-3.27,1.65-3.92,2.32-3.64,3.78c0.45,2.39,1.76,3.85,23.87,26.49c27.98,28.66,50.37,51.86,50.83,52.69
	c0.19,0.33-0.4,0.38-3.82,0.33C430.22,363.23,427.61,363.17,426.63,363.12z M561.52,419.9c-3.7-0.28-7.99-0.74-10.23-1.09
	c-3.52-0.55-10.04-1.91-11.38-2.39c-0.6-0.21-2.12-0.59-3.38-0.85c-1.26-0.26-2.62-0.63-3.03-0.84c-0.41-0.21-1.12-0.38-1.58-0.38
	c-0.46,0-1.37-0.24-2.01-0.53c-0.64-0.29-2.75-1.07-4.69-1.74c-14.33-4.93-30.02-12.25-41.71-19.47c-5.37-3.32-7.23-4.54-7.23-4.76
	c0-0.11-0.77-0.79-1.71-1.5c-6.42-4.86-17.31-14.6-28.27-25.24c-12.41-12.06-40.17-40.61-56.44-58.04l-3.08-3.29l2.12-0.2
	c1.17-0.11,10.65-0.09,21.08,0.05c22.01,0.28,45.39,0.19,49.97-0.19c3.31-0.28,9.09-1.59,12.25-2.79
	c8.09-3.05,16.21-9.84,21.36-17.85c3.07-4.78,5.75-11.46,6.54-16.31c1.05-6.48,1.1-7.5,0.6-11.77c-0.78-6.7-2.23-11.6-5.19-17.57
	c-2.18-4.4-7.48-10.48-11.81-13.57c-6.28-4.46-10.85-6.71-16.51-8.11c-4.93-1.22-7.27-1.29-57.9-1.81
	c-32.88-0.33-41.32-0.58-44.73-1.35c-4.19-0.93-7.68-2.19-11.83-4.25c-4.32-2.15-7.4-4.11-11.57-7.35
	c-8.06-6.28-15.14-19.12-16.71-30.33c-0.22-1.58-0.52-3.1-0.67-3.38c-0.15-0.28-0.27-1.08-0.27-1.78v-1.27l3.34,0.16
	c4.7,0.23,21.13,0.41,63.63,0.73c46.44,0.34,65.03,0.66,70.38,1.2c6.98,0.71,13.3,1.23,14.83,1.24c1.09,0,2.02,0.26,3.64,0.99
	c1.36,0.61,2.9,1.07,4.09,1.22c3.92,0.49,14.02,5.2,23.53,10.97c6.22,3.78,10.23,6.98,15.27,12.23c3.32,3.45,8.56,9.71,10.23,12.22
	c0.67,1.02,1.75,2.47,2.39,3.23c0.64,0.76,1.52,2.22,1.94,3.25c0.43,1.03,1.67,3.71,2.75,5.96c3.83,7.96,5.14,10.94,5.87,13.37
	c0.4,1.35,0.97,3.15,1.25,4c0.59,1.77,1.64,7.71,2.31,13.05c0.38,3.02,0.43,5.13,0.31,11.87c-0.09,5.04-0.31,9.41-0.58,11.34
	c-0.59,4.36-2.05,11.71-2.51,12.64c-0.21,0.42-0.38,0.9-0.38,1.06c0,0.48-3.55,8.63-6.93,15.88c-4.17,8.96-5.43,10.59-17.9,23.08
	c-6.88,6.9-11.33,11-14.55,13.41c-2.49,1.87-7.18,4.48-9.01,5.02c-1.1,0.32-1.12,0.35-1.2,1.71c-0.05,0.76,0.09,1.79,0.3,2.29
	c1.1,2.63,7.94,9.8,42.86,44.97c13.79,13.89,26.8,27,28.91,29.14l3.83,3.89l-4.77-0.05C564.76,420,562.12,419.94,561.52,419.9z
	 M530.43,454.73c-10.05-0.11-20.99-0.21-24.31-0.23l-6.03-0.04l-0.35-0.84c-0.41-0.98-0.33-1.26,1.51-5.58
	c2.4-5.62,3.95-9.46,3.95-9.79c0-0.18,0.61-1.06,1.36-1.94l1.36-1.61l8.66,0.06c22.1,0.16,58.72,0.65,60.72,0.82l2.23,0.19l0.09,0.9
	c0.05,0.49-0.12,1.54-0.38,2.32c-0.76,2.31-5.85,13.93-6.34,14.49c-1.16,1.32-1.66,1.37-13.27,1.41
	C553.61,454.9,540.48,454.84,530.43,454.73z M215.72,470.15c-1.41-0.95-9.77-11.05-12.22-14.74c-0.5-0.75-1.3-1.79-1.79-2.32
	c-1.19-1.29-8.75-12.56-11.71-17.47c-1.31-2.18-2.82-4.55-3.34-5.29c-3.66-5.15-14.34-27.2-19.71-40.7
	c-1.76-4.43-4.64-12.75-4.64-13.4c0-0.29-0.25-0.99-0.55-1.55c-0.3-0.56-0.55-1.33-0.55-1.71c0-0.38-0.19-1.14-0.41-1.68
	c-0.23-0.55-0.58-1.68-0.78-2.52c-0.2-0.84-0.93-3.55-1.61-6.02c-0.68-2.48-1.45-5.55-1.7-6.83c-0.25-1.27-0.81-3.73-1.23-5.46
	c-1.89-7.59-3.67-20.44-4.76-34.38c-0.23-2.93-0.62-6.8-0.86-8.6c-0.37-2.73-0.41-4.69-0.26-11.74c0.19-8.93,0.53-16.86,1-23.2
	c0.3-4.12,2.01-16.64,3.14-23.06c1.21-6.9,3.98-20.29,4.39-21.29c0.22-0.52,0.77-2.37,1.22-4.09c0.44-1.73,1.72-5.88,2.85-9.24
	c1.12-3.36,2.03-6.29,2.03-6.53c0-0.24,0.16-0.62,0.36-0.86c0.2-0.24,0.52-0.98,0.71-1.66c1.19-4.22,9.81-24.72,10.61-25.21
	c0.15-0.09,0.36-0.54,0.46-0.99c0.1-0.45,0.28-0.82,0.41-0.82c0.12,0,0.38-0.44,0.55-0.98c0.73-2.21,9.26-17.95,10.85-20.03
	c0.29-0.38,0.74-1.11,1.01-1.64c0.26-0.53,1.24-2.06,2.16-3.41c0.93-1.35,2.03-3.07,2.46-3.82c0.43-0.75,1.5-2.28,2.39-3.41
	c0.88-1.13,1.88-2.48,2.22-3c0.34-0.53,0.8-0.99,1.03-1.04c0.23-0.04,1.78,1.02,3.44,2.36c1.66,1.34,3.88,2.95,4.93,3.57
	c1.05,0.62,2.13,1.39,2.41,1.69c0.49,0.54,0.48,0.59-0.41,2.31c-0.5,0.96-1.01,1.75-1.12,1.75c-0.53,0-12.98,20.32-15.05,24.56
	c-0.62,1.28-1.23,2.5-1.36,2.73c-0.12,0.22-0.98,1.89-1.9,3.69c-0.92,1.8-1.79,3.43-1.95,3.62c-0.16,0.19-0.55,1.11-0.88,2.05
	c-0.33,0.93-1.56,3.85-2.73,6.48c-1.17,2.63-2.8,6.5-3.62,8.6c-2.11,5.42-6.82,19.49-7.18,21.48c-0.17,0.92-0.66,2.73-1.09,4.03
	c-2.49,7.43-6.71,31.21-7.61,42.85c-1.02,13.17-1.28,29.48-0.61,37.53c0.43,5.25,1.63,17.17,1.98,19.65
	c2.5,18.08,8.27,39.85,14.99,56.49c9.47,23.45,20.02,42.04,35.35,62.26c4.6,6.06,5.29,7.17,5.29,8.48c0,0.49-0.56,2.15-1.24,3.69
	c-0.68,1.54-1.86,4.31-2.62,6.15c-0.76,1.84-1.46,3.34-1.56,3.34C216.8,470.83,216.27,470.53,215.72,470.15z M355.03,480.92
	c-3.15-0.1-5.96-0.28-6.23-0.4c-0.75-0.33-0.49-1.36,1.62-6.64c2.43-6.09,3.74-8.66,4.53-8.93c0.86-0.28,23.88-0.51,27.7-0.27
	c2.59,0.16,3.07,0.26,3.07,0.64c-0.01,1.66-4.82,13.17-6.17,14.74l-0.97,1.13l-8.91-0.05C364.77,481.12,358.18,481.02,355.03,480.92
	z M217,510.49c-2.01-0.17-2.32-0.32-2.32-1.06c0-0.82,0.78-2.74,7.97-19.63c3-7.05,6.29-14.92,7.31-17.47
	c1.02-2.55,2.6-6.33,3.51-8.38c0.91-2.06,1.73-4.06,1.83-4.46c0.1-0.39,0.35-0.78,0.56-0.86c0.21-0.08,0.37-0.3,0.37-0.5
	c0-0.19,0.68-2.08,1.5-4.2c0.83-2.12,1.5-4.02,1.5-4.22c0-0.2,0.24-0.65,0.54-0.99c0.3-0.35,0.55-0.78,0.55-0.97
	c0-1.03,4.87-11.48,6.18-13.27l1.02-1.39l23.06,0.19c26.46,0.22,32.55,0.44,34.71,1.25c4.16,1.57,7.09,5.79,7.1,10.24
	c0.01,2.27-0.69,4.61-3.22,10.85c-0.96,2.37-1.74,4.48-1.74,4.7c0,0.22-0.24,0.52-0.53,0.68c-0.29,0.15-0.6,0.65-0.7,1.1
	c-0.54,2.44-5.8,13.73-7.71,16.55c-1.43,2.1-3.77,4.24-5.59,5.1c-1.61,0.76-5.02,1.6-9.03,2.22c-1.48,0.23-2.8,0.49-2.93,0.57
	c-0.53,0.33-0.16,1.69,1.83,6.87c2.85,7.39,4.96,13.81,5.18,15.71l0.19,1.58l-11.08-0.08l-11.08-0.08l-0.66-0.68
	c-0.36-0.38-1.03-1.72-1.48-3c-0.45-1.27-1.56-4.35-2.45-6.82c-4.9-13.49-4.67-12.95-5.94-13.83c-1.63-1.13-1.8-1.42-1.61-2.63
	c0.19-1.17,3.86-10.11,5.46-13.3c0.49-0.98,1.08-1.94,1.3-2.12c0.74-0.61,3.54-0.88,12.74-1.22l9.14-0.33l1.41-3.27
	c0.77-1.8,1.55-3.77,1.73-4.37c0.18-0.6,0.55-1.64,0.81-2.32c0.26-0.67,0.56-1.69,0.66-2.25l0.18-1.02h-11.84
	c-6.85,0-12.46,0.12-13.3,0.28c-1.69,0.32-2.46,0.94-2.95,2.38c-0.19,0.57-0.89,2.2-1.54,3.62c-0.66,1.43-1.65,3.76-2.2,5.18
	c-1.1,2.84-8.45,20.58-10.06,24.29c-0.56,1.27-2.05,4.84-3.33,7.91c-2.24,5.41-5.03,11.18-6.06,12.53c-0.45,0.58-0.81,0.68-3.2,0.88
	C230.18,510.64,219.22,510.68,217,510.49z M321.04,510.97c-13.11-0.19-12.99-0.17-12.67-1.78c0.22-1.15,3.17-8.99,3.44-9.16
	c0.12-0.08,0.31-0.51,0.42-0.95c0.11-0.45,0.38-1.09,0.59-1.42c0.22-0.33,0.5-1.01,0.62-1.5c0.3-1.17,2.81-7.34,5.96-14.64
	c2.68-6.22,5.75-13.77,5.75-14.15c0-0.12,0.22-0.53,0.48-0.9c0.26-0.37,0.87-1.71,1.34-2.99c1.84-4.93,2.75-7.14,3.05-7.44
	c0.17-0.17,0.31-0.54,0.31-0.81c0-0.27,0.17-0.77,0.39-1.1c0.21-0.33,0.71-1.58,1.11-2.77c0.8-2.41,2.42-6.04,2.98-6.69
	c0.2-0.23,0.45-0.89,0.56-1.47c0.25-1.38,3.19-7.14,4.32-8.43l0.89-1.02l26.6,0.26c31.65,0.31,35.09,0.42,35.46,1.11
	c0.33,0.62-0.15,2.24-2.07,6.96c-0.82,2.01-1.48,3.83-1.48,4.06c0,0.23-0.23,0.57-0.5,0.77c-0.27,0.2-0.72,1.03-0.98,1.85
	c-0.56,1.74-1.55,3.52-2.37,4.26c-0.54,0.49-1.31,0.53-12.34,0.7c-6.47,0.09-15.83,0.19-20.79,0.2l-9.02,0.03l-0.73,1.44
	c-0.4,0.79-0.73,1.6-0.73,1.81c0,0.21-0.17,0.51-0.38,0.68c-0.21,0.17-1.08,2.08-1.94,4.24c-0.86,2.17-3.55,8.74-5.99,14.6
	c-2.43,5.86-4.63,11.26-4.88,12c-0.48,1.44-0.58,2.34-0.25,2.34c0.11,0,0.94,0.13,1.84,0.29c0.95,0.17,9.14,0.37,19.65,0.47
	c20.6,0.22,19.67,0.1,19.18,2.29c-0.33,1.49-4.72,12.55-5.56,14c-0.35,0.6-1.08,1.52-1.62,2.05l-0.99,0.96l-18.88,0.03
	C341.42,511.13,327.58,511.06,321.04,510.97z M445.96,511.85l-4.26-0.09l-0.96-1.83c-0.86-1.64-3.9-10.45-5.36-15.48
	c-0.3-1.05-1.23-3.88-2.07-6.28c-0.84-2.4-1.83-5.47-2.2-6.83c-0.79-2.88-2.8-7.09-3.37-7.09c-0.26,0-0.92,1.27-1.85,3.55
	c-2.47,6.02-3.34,8.29-3.34,8.69c0,0.21-0.18,0.53-0.4,0.72c-0.22,0.18-0.61,0.9-0.87,1.6c-0.26,0.7-1.86,4.62-3.55,8.7
	c-3.28,7.89-5.26,12.14-6.2,13.28l-0.58,0.7l-20.13,0.38l0.15-1.66c0.15-1.67,0.92-3.74,5.25-14.11c1-2.4,2.47-5.96,3.27-7.91
	c0.8-1.95,2.33-5.7,3.41-8.33c1.08-2.63,2.25-5.56,2.6-6.51c0.35-0.95,0.83-1.95,1.06-2.2c0.23-0.26,0.42-0.65,0.42-0.86
	c0-0.21,0.93-2.66,2.06-5.44c1.13-2.78,3.11-7.63,4.39-10.78c1.28-3.15,3.16-7.7,4.17-10.1c1.01-2.4,2.02-4.83,2.23-5.39
	c0.21-0.57,1-1.77,1.75-2.67l1.36-1.64l9.39,0.09l9.39,0.09l1.02,1.15c1.29,1.46,2.15,3.79,7.87,21.33
	c4.41,13.51,5.06,15.3,5.65,15.49c0.5,0.15,2.92-5.3,10.19-22.99c3.67-8.93,5.48-12.71,6.51-13.58c0.74-0.62,1.15-0.72,3.94-0.89
	c1.71-0.11,5.8-0.14,9.08-0.09c8.26,0.15,8.58,0.35,6.81,4.28c-0.54,1.19-0.97,2.33-0.97,2.54c0,0.21-0.25,0.84-0.55,1.4
	c-0.3,0.57-1.3,2.9-2.21,5.18c-0.91,2.28-2.64,6.47-3.83,9.31c-1.2,2.83-3.87,9.34-5.94,14.46c-14.07,34.83-15.79,38.83-17,39.52
	C461.66,511.92,454.82,512.04,445.96,511.85z M512.97,512.59c-2.25-0.11-5.73-0.3-7.74-0.42l-3.65-0.21l0.15-1.4
	c0.08-0.79,0.85-3.11,1.77-5.36c0.89-2.18,3-7.33,4.69-11.46c8.82-21.56,11.36-27.66,12.52-30.02c1.15-2.36,1.36-2.61,2.22-2.84
	c1.2-0.31,18.39-0.26,19.5,0.05c1.11,0.31,1.15,0.96,0.19,3.38c-3.8,9.58-10.65,26.25-12.88,31.34c-0.88,2.03-2.18,5.16-2.87,6.96
	c-1.58,4.11-3.05,7.42-3.73,8.4C522,512.65,520.01,512.95,512.97,512.59z M405.63,562.07c-15.68-0.81-19-1.06-21.83-1.58
	c-1.12-0.21-2.54-0.45-3.14-0.53c-6.25-0.86-17.84-3.01-25.1-4.66c-3.02-0.69-15.22-4.14-18.85-5.33c-1.81-0.59-3.53-1.08-3.83-1.08
	c-0.29,0-0.78-0.18-1.09-0.4c-0.32-0.22-1.05-0.52-1.63-0.66c-1.46-0.35-7.75-2.62-9.95-3.59c-1-0.44-3-1.18-4.45-1.65
	c-1.45-0.47-3.59-1.39-4.74-2.05c-1.15-0.66-2.71-1.4-3.46-1.64c-1.54-0.5-8.95-4.2-14-6.99c-1.85-1.02-3.81-2.04-4.36-2.27
	c-0.55-0.23-3.2-1.67-5.89-3.21l-4.89-2.78l1.47-0.19c0.81-0.1,3.57-0.31,6.13-0.46c5.42-0.32,6.64-0.67,9.48-2.74
	c2.58-1.89,2.72-1.9,4.13-0.6c1.45,1.34,2.95,2.11,6.69,3.45c1.57,0.57,5.26,2,8.18,3.2c13.27,5.42,20.46,8.16,24.82,9.46
	c7.93,2.37,9.88,2.91,14.73,4.12c13.92,3.48,23.52,5.15,40.37,7.01c3.93,0.43,6.96,0.49,24,0.49c21.48-0.01,21.31,0,34.77-1.91
	c6.87-0.98,11.44-1.76,17.51-3c3.17-0.65,4.36-0.95,13.05-3.25c5.91-1.56,17.68-5.44,23.87-7.86c17.23-6.74,18.24-7.22,35.73-16.93
	c9.07-5.03,21.76-13.69,31.65-21.57c13.39-10.68,31.46-28.7,40.56-40.46c1.17-1.52,3.32-4.28,4.76-6.14
	c1.44-1.86,4.65-6.45,7.13-10.21c4.5-6.84,12.76-20.36,12.76-20.91c0-0.16,1.81-3.93,4.03-8.38c8.74-17.55,13.37-30.07,18.04-48.76
	c3.44-13.78,4.49-19.62,6.34-35.33c0.81-6.89,0.86-7.85,0.98-20.17c0.12-12.37-0.15-23.38-0.76-30.73
	c-0.89-10.8-4.44-29.93-7.51-40.39c-0.4-1.35-1.01-3.62-1.36-5.05c-2.77-11.18-11.78-33.44-18.86-46.64
	c-5.64-10.51-8.13-14.69-14.06-23.6c-3.91-5.88-5.24-7.7-9.89-13.55c-19.6-24.61-40.11-43.26-65.34-59.39
	c-6.52-4.18-20.38-11.68-28.91-15.66c-3.86-1.8-6.08-2.75-13.23-5.71c-4.99-2.06-23.22-7.92-29.73-9.57
	c-15.13-3.81-34.23-6.85-46.37-7.38c-7.87-0.34-28.76-0.34-34.64,0.01c-4.65,0.27-8.06,0.59-11.87,1.09
	c-1.12,0.15-3.95,0.52-6.27,0.83c-10.04,1.31-24.71,4.45-34.23,7.32c-12.59,3.79-16.94,5.23-21.53,7.13
	c-11.81,4.88-15.19,6.41-21.87,9.89c-16.15,8.41-24.12,13.3-36.02,22.09l-6.59,4.87l-11.33-0.07l-11.33-0.07l3.58-3
	c6.39-5.36,6.84-5.73,10.71-8.75c4.91-3.84,12.47-9.29,16.64-12c1.8-1.17,3.9-2.6,4.66-3.17c0.76-0.58,1.51-1.05,1.66-1.05
	c0.15,0,1.06-0.51,2.02-1.13c3.48-2.25,15.24-8.75,20.55-11.35c3.26-1.6,10.21-4.71,14.61-6.54c8.19-3.4,10.2-4.19,11.44-4.49
	c0.69-0.17,1.65-0.53,2.13-0.8c0.48-0.27,1.31-0.58,1.84-0.68c0.53-0.1,1.03-0.29,1.11-0.42c0.08-0.13,0.48-0.24,0.89-0.24
	c0.41,0,1.04-0.21,1.4-0.46c0.75-0.53,9.09-3.12,15.15-4.71c2.25-0.59,4.58-1.25,5.18-1.46c0.6-0.21,3.12-0.78,5.59-1.27
	c2.47-0.48,6.91-1.36,9.86-1.95c2.95-0.59,8.35-1.44,12-1.89c3.66-0.45,8.55-1.07,10.87-1.38c6.88-0.91,16.79-1.15,33.12-0.81
	c14.64,0.31,19.29,0.55,24.44,1.26c1.57,0.22,3.85,0.52,5.05,0.67c5.2,0.64,6.84,0.89,11.87,1.8c6.34,1.14,14.33,2.91,20.96,4.65
	c5.24,1.37,19.53,5.84,21.73,6.8c0.75,0.33,2.65,1.06,4.23,1.62c4.04,1.44,10.71,4.18,16.77,6.88c5.38,2.4,16.3,7.91,17.73,8.94
	c0.45,0.33,2.23,1.38,3.96,2.34c6.58,3.67,15.84,9.41,18.38,11.42c0.92,0.72,2.83,2.09,4.26,3.05c2.52,1.69,9.19,6.67,13.28,9.92
	c4.49,3.56,17.29,15.25,21.78,19.86c9.56,9.84,19.24,21.15,25.22,29.43c7.19,9.98,15.35,22.86,20.73,32.76
	c1.83,3.37,3.43,6.25,3.55,6.4c0.12,0.15,0.7,1.5,1.3,3c0.6,1.5,1.98,4.63,3.06,6.96c2.9,6.2,3.01,6.45,3.01,6.78
	c0,0.17,0.25,0.71,0.54,1.2c0.3,0.49,0.55,1.12,0.55,1.41c0,0.28,0.8,2.39,1.77,4.69c0.97,2.29,1.89,4.64,2.03,5.22
	c0.4,1.6,1.93,6.13,2.37,7c0.21,0.42,0.38,1.07,0.38,1.45c0,0.37,0.2,1.06,0.44,1.53c0.25,0.47,0.92,2.68,1.5,4.92
	c0.58,2.24,1.19,4.31,1.35,4.6c0.16,0.3,0.46,1.3,0.68,2.23c0.22,0.93,0.64,2.74,0.95,4.01c0.3,1.27,0.98,4.1,1.5,6.28
	c0.52,2.18,1.12,5.14,1.34,6.59c0.22,1.45,0.52,3.11,0.67,3.68c0.35,1.32,1.44,8.66,2.34,15.76c1.1,8.68,1.34,14.32,1.36,31.81
	c0.02,19.74-0.36,26.15-2.31,38.99c-1.39,9.13-4.94,25.92-6.53,30.85c-0.41,1.29-0.97,3.27-1.24,4.39
	c-0.94,4.03-5.21,16.16-9.45,26.88c-4.36,11.04-18.09,36.69-24.4,45.57c-1.06,1.5-3.46,4.88-5.32,7.51
	c-3.66,5.16-6.97,9.37-13.43,17.06c-4.98,5.94-23.21,24.31-28.29,28.53c-1.88,1.55-4.82,4-6.55,5.44c-5.9,4.92-9.2,7.39-18.26,13.67
	c-5.31,3.68-7.44,5.02-16.58,10.39c-7.37,4.33-9.65,5.53-19.03,9.98c-10.93,5.19-18.6,8.32-26.87,10.98
	c-7.6,2.44-7.77,2.5-10.78,3.55c-3.21,1.13-14.67,4.03-21.41,5.43c-2.92,0.6-6.42,1.34-7.77,1.63c-6.13,1.32-16.54,2.69-25.1,3.31
	C433.34,561.96,411.25,562.36,405.63,562.07z"/>
</svg>
