<?xml version="1.0" encoding="UTF-8"?>
<svg id="Layer_2" data-name="Layer 2" xmlns="http://www.w3.org/2000/svg" viewBox="0 0 55.36 55.47">
  <g id="Layer_1-2" data-name="Layer 1">
    <g>
      <path d="m.03,27.27C-.53,13.82,11.65.04,27.66,0c14.38-.03,28.13,12.18,27.69,28.94-.37,13.98-12.95,26.43-27.27,26.53C11.61,55.59-.7,41.72.03,27.27Zm2.66,1.05c.68,14.58,12.04,25.08,26.66,24.23,13.24-.77,23.49-11.87,23.2-24.85-.33-14.84-11.79-25.53-26.17-24.95C13,3.29,2.07,15.09,2.69,28.32Z"/>
      <path d="m19.32,27.82c0-2.78-.01-5.57.01-8.35,0-.56-.02-1.25.29-1.63.42-.53,1.14-1.16,1.71-1.15.65.02,1.38.61,1.88,1.14.3.31.3.98.3,1.49.02,5.61.01,11.23,0,16.84,0,1.15-.24,2.21-1.53,2.55-1.49.39-2.62-.55-2.65-2.26-.05-2.88-.01-5.76-.01-8.63Z"/>
      <path d="m35.99,27.8c0,2.78.01,5.57,0,8.35-.01,1.76-.71,2.61-2.08,2.62-1.39,0-2.1-.81-2.11-2.58-.02-5.66-.02-11.32,0-16.99,0-1.2.32-2.29,1.71-2.56,1.43-.27,2.44.73,2.46,2.53.04,2.88.01,5.76.01,8.63Z"/>
    </g>
  </g>
</svg>