<?xml version="1.0" encoding="UTF-8"?>
<svg id="Layer_2" data-name="Layer 2" xmlns="http://www.w3.org/2000/svg" viewBox="0 0 52.47 41.94" fill="#f7fafc">
  <g id="Layer_1-2" data-name="Layer 1">
    <g>
      <path d="m18.33,19.22c5.41,0,10.83,0,16.24,0,.49,0,.73-.1.91-.62.94-2.78,3.66-4.67,6.56-4.64,2.95.03,5.56,1.87,6.51,4.62.17.49.39.68.9.63.45-.04.9-.03,1.35,0,1.1.08,1.7.76,1.67,1.86-.02.93-.76,1.73-1.76,1.62-1.33-.14-1.99.25-2.61,1.55-1.23,2.6-3.58,3.84-6.43,3.67-3.02-.18-5.18-1.77-6.21-4.68-.19-.54-.5-.51-.9-.51-10.83,0-21.66,0-32.49,0-1.35,0-2.16-.78-2.05-1.95.09-.97.79-1.56,1.93-1.57,1.56-.01,3.12,0,4.68,0,3.9,0,7.8,0,11.7,0Zm23.66,5.25c1.95,0,3.5-1.53,3.52-3.48.01-1.93-1.56-3.51-3.5-3.51-1.91,0-3.48,1.56-3.48,3.45,0,1.97,1.53,3.53,3.46,3.54Z"/>
      <path d="m39.42,36.76c-3.66,0-7.33.01-10.99-.01-.51,0-.73.15-.91.64-.98,2.78-3.54,4.55-6.52,4.55-2.96,0-5.58-1.8-6.53-4.55-.16-.48-.37-.64-.89-.64-3.85.02-7.71.02-11.56,0-1.32,0-2.15-.85-2-2.01.12-.94.81-1.51,1.9-1.51,3.85,0,7.71-.02,11.56.01.6,0,.84-.19,1.03-.74.96-2.73,3.58-4.53,6.49-4.52,2.93,0,5.53,1.8,6.48,4.53.2.57.46.73,1.05.73,7.33-.02,14.66-.02,21.99-.01,1.31,0,1.98.65,1.95,1.87-.03.96-.75,1.63-1.84,1.65-1.68.02-3.36,0-5.04,0-2.06,0-4.11,0-6.17,0Zm-18.44,1.72c1.93,0,3.51-1.57,3.52-3.51,0-1.88-1.56-3.45-3.48-3.46-1.94-.01-3.5,1.51-3.5,3.42,0,1.96,1.53,3.54,3.46,3.55Z"/>
      <path d="m5.45,8.71c-1.18,0-2.34,0-3.5,0-1.17,0-1.91-.67-1.94-1.7-.03-1.08.68-1.76,1.92-1.79.99-.02,1.99-.02,2.98,0,.42,0,.61-.12.76-.53C6.6,2.21,8.3.55,10.97.11c3.59-.59,6.55,1.2,7.76,4.38.21.56.47.73,1.06.73,10.09-.02,20.19-.01,30.28-.01.33,0,.67,0,.99.05.96.15,1.45.82,1.41,1.87-.04.84-.67,1.49-1.54,1.57-.28.02-.57.02-.85.02-10.12,0-20.24,0-30.36-.01-.52,0-.77.11-.96.65-.92,2.71-3.63,4.6-6.51,4.61-2.93,0-5.59-1.87-6.57-4.63-.07-.2-.15-.39-.23-.61Zm10.28-1.74c.01-1.91-1.53-3.49-3.43-3.53-1.92-.03-3.54,1.57-3.54,3.49,0,1.93,1.51,3.47,3.44,3.51,1.95.04,3.53-1.52,3.54-3.48Z"/>
    </g>
  </g>
</svg>