<?xml version="1.0" encoding="UTF-8"?>
<svg id="Layer_2" data-name="Layer 2" xmlns="http://www.w3.org/2000/svg" viewBox="0 0 56.09 56.17" fill="#f7fafc">
  <g id="Layer_1-2" data-name="Layer 1">
    <g>
      <path d="m.02,27.89C-.53,14.29,10.88,1.05,25.89.07c18.17-1.19,30.06,13.62,30.21,27.74.15,14.07-11.08,27.79-27.14,28.34C11.93,56.73-.59,42.49.02,27.89Zm2.85-.04c-.2,13.36,10.29,25.39,25.26,25.37,13.96-.02,25.35-11.73,25.01-25.23-.37-14.59-11.64-25.4-26.16-25.09C13.87,3.19,2.59,14.86,2.88,27.85Z"/>
      <path d="m42.45,28.9c-7.28,4.28-14.4,8.46-21.76,12.79v-25.37c7.21,4.17,14.39,8.32,21.76,12.58Z"/>
    </g>
  </g>
</svg>