<?xml version="1.0" encoding="UTF-8"?>
<svg id="Layer_2" data-name="Layer 2" xmlns="http://www.w3.org/2000/svg" viewBox="0 0 53.61 47.92" fill="#f7fafc">
  <g id="Layer_1-2" data-name="Layer 1">
    <g>
      <path d="m26.75,47.85c-6.7,0-13.41-.2-20.1.07-4.83.19-8.49-5.07-5.67-9.85,4.23-7.19,8.39-14.42,12.58-21.63,2.53-4.36,5.02-8.75,7.61-13.07,2.19-3.67,6.62-4.44,9.84-1.75.63.53,1.14,1.25,1.56,1.98,6.69,11.48,13.37,22.97,20.02,34.48,2.2,3.82.71,8.14-3.24,9.5-.69.24-1.48.28-2.22.28-6.79.02-13.59.01-20.38.01Zm.08-1.58c6.65,0,13.3.04,19.96-.01,4.24-.03,6.43-3.58,4.37-7.17-6.69-11.65-13.43-23.26-20.2-34.86-2.01-3.43-6.27-3.45-8.28-.02C15.89,15.8,9.17,27.42,2.48,39.07c-.47.81-.72,1.88-.69,2.82.06,2.66,2.14,4.36,5.23,4.37,6.6.03,13.21,0,19.82,0Z"/>
      <path d="m29.86,22.38c0,2.26.02,4.53,0,6.79-.02,2.08-1.31,3.49-3.1,3.46-1.74-.03-2.98-1.39-2.99-3.43-.03-4.58-.03-9.15,0-13.73.01-2.16,1.25-3.48,3.1-3.45,1.82.03,2.98,1.39,3,3.55.02,2.26,0,4.53,0,6.79Zm-1.73-.04c0-2.27,0-4.53,0-6.8,0-.91-.2-1.79-1.34-1.78-1.16.01-1.29.92-1.29,1.82,0,4.48,0,8.97,0,13.45,0,.91.12,1.81,1.26,1.84,1.23.03,1.38-.89,1.38-1.87,0-2.22,0-4.44,0-6.66Z"/>
      <path d="m29.84,37.99c-.04,1.53-1.53,2.97-3.06,2.96-1.6-.01-3.08-1.56-3.01-3.14.08-1.57,1.51-2.88,3.12-2.83,1.58.04,2.99,1.48,2.95,3.01Zm-3.14-1.84c-.53.86-1.13,1.4-1.06,1.84.07.44.82,1.1,1.23,1.07.43-.03,1.1-.76,1.12-1.2.02-.44-.65-.91-1.29-1.7Z"/>
      <path d="m28.13,22.34c0,2.22,0,4.44,0,6.66,0,.98-.15,1.9-1.38,1.87-1.15-.02-1.26-.92-1.26-1.84,0-4.48,0-8.97,0-13.45,0-.9.13-1.81,1.29-1.82,1.14-.01,1.33.87,1.34,1.78.01,2.27,0,4.53,0,6.8Z"/>
      <path d="m26.7,36.15c.64.8,1.3,1.26,1.29,1.7-.02.44-.69,1.17-1.12,1.2-.41.03-1.16-.63-1.23-1.07-.07-.44.53-.98,1.06-1.84Z"/>
    </g>
  </g>
</svg>