<?xml version="1.0" encoding="UTF-8"?>
<svg id="Layer_2" data-name="Layer 2" xmlns="http://www.w3.org/2000/svg" viewBox="0 0 55.43 55.37" fill="#f7fafc">
  <g id="Layer_1-2" data-name="Layer 1">
    <g>
      <path d="m27.75.01c14.61-.47,28.27,12.28,27.67,28.94-.48,13.34-11.96,26.77-28.42,26.41C11.88,55.03-.71,42.03.03,26.05.66,12.62,12.59-.36,27.75.01ZM4.32,27.48c-.23,12.19,9.69,23.85,24.23,23.58,12.29-.22,22.81-11.15,22.6-23.38-.22-13.16-10.37-23.64-24.08-23.51-12.48.11-23,11.03-22.75,23.32Z"/>
      <path d="m17.04,27.59c0-2.64-.02-5.29,0-7.93.01-1.79.88-2.74,2.68-2.76,5.34-.04,10.67-.04,16.01,0,1.8.01,2.69.95,2.7,2.75.03,5.34.03,10.67,0,16.01-.01,1.76-.98,2.69-2.76,2.7-5.29.02-10.58.02-15.86,0-1.84,0-2.73-.94-2.75-2.84-.03-2.64,0-5.29,0-7.93Z"/>
    </g>
  </g>
</svg>