<?xml version="1.0" encoding="UTF-8"?>
<svg id="Layer_2" data-name="Layer 2" xmlns="http://www.w3.org/2000/svg" viewBox="0 0 77.49 90.95" fill="#f7fafc">
  <g id="Layer_1-2" data-name="Layer 1">
    <g>
      <path d="m31.11,81.66c-.63-.05-1.15-.07-1.65-.14-2.52-.37-3.91-1.96-3.96-4.52-.02-1.32.04-2.64-.02-3.96-.07-1.72.44-3.1,1.84-4.21,1.2-.95.63-4.73-.84-6.03-.39-.34-.83-.62-1.27-.9-8.51-5.64-12.87-15.83-10.97-25.65,1.98-10.2,9.47-17.85,19.58-19.99,14.46-3.07,28.76,7.83,29.64,22.58.6,10.02-3.33,17.75-11.7,23.26-1.83,1.2-2.83,4.06-2.14,6.16.05.16.18.31.31.44.13.13.31.21.45.34,2.23,1.93,2.51,9.4.23,11.27-1.05.86-2.58,1.14-4.16,1.8.1,2.53-.53,5.27-3.03,7.22-1.42,1.1-3.06,1.71-4.86,1.64-2.37-.1-4.35-1.08-5.86-2.97-1.47-1.85-1.68-4.03-1.6-6.31Zm14.15-13.67c.07-.19.11-.27.12-.36.02-.23.04-.47.03-.71-.19-3.94,1.49-6.71,4.78-8.97,6.76-4.65,9.91-11.18,9.03-19.46-.89-8.33-7.47-15.89-15.48-17.79-8.66-2.06-17.34,1.32-22.14,8.61-6.42,9.75-3.61,22.8,6.27,29.02,2.53,1.59,4.01,3.8,4.26,6.79.08.93.09,1.86.14,2.87h12.98Zm2.48,4.52h-17.86v4.62h17.86v-4.62Zm-12.27,9.14c-.23,1.96,0,3.6,1.77,4.56,1.17.63,2.36.55,3.43-.28,1.43-1.1,1.63-2.61,1.45-4.28h-6.65Z"/>
      <path d="m77.49,29.41c-.31.32-.77,1.19-1.48,1.47-2.13.85-4.33,1.53-6.54,2.17-1.19.34-2.22-.32-2.5-1.46-.29-1.18.02-2.21,1.24-2.64,2.16-.77,4.35-1.49,6.56-2.13,1.37-.4,2.74.71,2.72,2.6Z"/>
      <path d="m8.15,33.14c-2.16-.75-4.68-1.53-7.11-2.52-1.07-.44-1.11-1.61-.73-2.59.38-.98,1.27-1.54,2.27-1.26,2.31.64,4.6,1.38,6.84,2.21,1.03.38,1.45,1.36,1.22,2.44-.23,1.1-1.02,1.65-2.5,1.72Z"/>
      <path d="m61.45,74.61c-.79-.59-1.53-.94-1.98-1.52-1.26-1.59-2.41-3.25-3.57-4.92-.87-1.26-.71-2.44.36-3.23,1.06-.77,2.25-.52,3.15.71,1.25,1.71,2.56,3.39,3.66,5.2.35.57.38,1.58.13,2.22-.22.58-1.03.94-1.75,1.53Z"/>
      <path d="m22.22,15.3c-.34.41-.74,1.33-1.38,1.54-.65.22-1.87.04-2.27-.45-1.59-1.92-3.01-3.98-4.37-6.07-.59-.9-.24-1.87.61-2.5.82-.62,1.94-.83,2.59-.02,1.65,2.05,3.11,4.25,4.63,6.4.12.17.09.46.19,1.1Z"/>
      <path d="m63.75,9.37c-.41.86-.61,1.44-.95,1.93-1.07,1.55-2.18,3.08-3.3,4.6-.95,1.28-2.26,1.61-3.27.85-1.1-.82-1.2-2-.25-3.35,1.17-1.66,2.26-3.38,3.6-4.89.51-.58,1.67-.97,2.42-.83.66.12,1.16,1.09,1.74,1.7Z"/>
      <path d="m40.89,5.56c0,1.04.03,2.07,0,3.11-.05,1.44-.87,2.33-2.09,2.35-1.23.02-2.16-.86-2.19-2.27-.05-2.16-.05-4.33,0-6.49C36.64.82,37.51-.01,38.78,0c1.27.01,2.04.83,2.1,2.32.04,1.08,0,2.16,0,3.25h0Z"/>
      <path d="m10.61,51.25c-.31.31-.8,1.15-1.5,1.43-2.05.81-4.19,1.43-6.31,2.06-1.19.35-2.31-.29-2.69-1.42-.35-1.04.19-2.2,1.34-2.6,2.13-.75,4.28-1.46,6.45-2.09,1.41-.41,2.72.66,2.71,2.62Z"/>
      <path d="m77.47,52.96c.03,1.04-1.23,2.18-2.47,1.84-2.27-.63-4.51-1.36-6.73-2.17-1.25-.46-1.66-1.6-1.22-2.77.45-1.18,1.41-1.62,2.74-1.2,1.93.6,3.86,1.23,5.79,1.85,1.08.35,1.79,1.04,1.88,2.44Z"/>
      <path d="m19.74,64.59c1.97.02,2.99,1.71,2.1,3.14-1.25,1.99-2.65,3.89-4.1,5.74-.7.89-1.77,1.13-2.78.4-1.03-.74-1.28-1.86-.62-2.87,1.28-1.97,2.69-3.86,4.14-5.71.33-.42,1.02-.57,1.26-.7Z"/>
      <path d="m36.88,44.81c2.99-2.96,6-5.94,9.01-8.93.33-.33.65-.71,1.04-.95,1-.6,2-.57,2.83.3.78.83.81,1.77.15,2.71-.16.23-.36.44-.55.64-3.52,3.55-7.04,7.11-10.58,10.65-1.39,1.39-2.33,1.38-3.74-.02-2.31-2.3-4.61-4.61-6.89-6.93-1.17-1.19-1.23-2.37-.21-3.33.95-.9,2.09-.78,3.24.33,1.86,1.81,3.72,3.62,5.69,5.52Z"/>
    </g>
  </g>
</svg>