<?xml version="1.0" encoding="UTF-8"?>
<svg id="Layer_2" data-name="Layer 2" xmlns="http://www.w3.org/2000/svg" viewBox="0 0 59.9 53.96" fill="#f7fafc">
  <g id="Layer_1-2" data-name="Layer 1">
    <g>
      <path d="m46.06,48.89c-2-3.18-4.04-6.07-5.72-9.16-2.47-4.55-4.9-9.14-6.96-13.89-2.29-5.29-1.17-10.27,2.82-14.36,4.05-4.14,9.04-5.25,14.58-3.44,6.78,2.22,10.7,9.81,8.54,16.63-2.01,6.35-5.52,11.97-8.97,17.59-1.33,2.16-2.76,4.26-4.28,6.61Zm.11-36.09c-2.81,0-5.07,2.2-5.09,4.96-.02,2.88,2.21,5.2,5.03,5.22,2.75.02,5.19-2.42,5.14-5.15-.04-2.76-2.33-5.02-5.08-5.03Z"/>
      <path d="m30.11,53.93c-7.14.18-14.79-.45-22.23-2.61-2.08-.6-4.14-1.65-5.88-2.94-2.71-2-2.68-5.78.17-7.57,2.22-1.4,4.85-2.23,7.38-3.03,3.45-1.09,7-1.88,10.49-2.86.7-.2,1.38-.62,1.98-1.07,1.48-1.12,1.35-2.48-.43-3.01-2.02-.6-4.14-.84-6.22-1.21-.41-.07-.94.1-1.25-.1-.53-.33-1.32-.88-1.31-1.31.02-.57.71-1.59,1.12-1.6,3.84-.06,7.7.15,10.87,2.71,1.88,1.51,1.82,4.56-.14,6.26-1.18,1.02-2.61,1.96-4.09,2.42-3.64,1.12-7.38,1.92-11.06,2.91-1.45.39-2.94.79-4.25,1.49-.85.46-1.88,1.45-1.95,2.27-.06.7.98,1.84,1.79,2.22,1.99.92,4.09,1.72,6.23,2.19,8.35,1.8,16.83,2.1,25.34,2.08.47,0,1.09-.15,1.38.08.52.42,1.12,1.04,1.19,1.65.11.83-.63,1.09-1.46,1.07-2.36-.04-4.72-.01-7.67-.01Z"/>
      <path d="m10.93,24.19c-2.87-4.47-5.72-8.73-7.5-13.6-1.14-3.11-.49-5.89,1.8-8.19C7.61.02,10.55-.57,13.7.54c3.19,1.13,4.91,3.57,5.23,6.91.09.95-.12,1.98-.43,2.9-1.7,5-4.7,9.3-7.57,13.85Zm-.06-14.47c2.04.02,3.61-1.49,3.63-3.48.02-2.03-1.5-3.61-3.5-3.64-2.01-.03-3.61,1.52-3.64,3.5-.02,2.01,1.51,3.6,3.5,3.61Z"/>
    </g>
  </g>
</svg>